<svg width="20" height="28" viewBox="0 0 20 28" fill="none" xmlns="http://www.w3.org/2000/svg">
<path opacity="0.4" fill-rule="evenodd" clip-rule="evenodd" d="M11.0607 0.93934C10.4749 0.353553 9.52513 0.353553 8.93934 0.93934L0.939341 8.93934C0.353554 9.52513 0.353554 10.4749 0.939341 11.0607C1.52513 11.6464 2.47487 11.6464 3.06066 11.0607L8.5 5.62132V26C8.5 26.8284 9.17157 27.5 10 27.5C10.8284 27.5 11.5 26.8284 11.5 26V5.62132L16.9393 11.0607C17.5251 11.6464 18.4749 11.6464 19.0607 11.0607C19.6464 10.4749 19.6464 9.52513 19.0607 8.93934L11.0607 0.93934Z" fill="#495263"/>
<path d="M8.93934 0.939341C9.52513 0.353554 10.4749 0.353554 11.0607 0.939341L19.0607 8.93934C19.6464 9.52513 19.6464 10.4749 19.0607 11.0607C18.4749 11.6464 17.5251 11.6464 16.9393 11.0607L10.0051 4.05849L3.06066 11.0607C2.47487 11.6464 1.52513 11.6464 0.939339 11.0607C0.353553 10.4749 0.353553 9.52513 0.939339 8.93934L8.93934 0.939341Z" fill="#495263"/>
</svg>
